<?xml version="1.0" encoding="UTF-8" standalone="no"?>
<svg
   width="270.93332mm"
   height="270.93332mm"
   viewBox="0 0 270.93332 270.93332"
   version="1.1"
   id="svg1"
   xml:space="preserve"
   xmlns="http://www.w3.org/2000/svg"
   xmlns:svg="http://www.w3.org/2000/svg"><defs
     id="defs1" /><g
     id="g1"
     transform="translate(268.23237,8.5944059)"><circle
       style="fill:#121212;fill-opacity:1;stroke-width:4.41201;stroke-linecap:round;stroke-linejoin:round"
       id="path1"
       cx="-132.7657"
       cy="126.87225"
       r="135.46666" /><path
       d="m -167.5384,62.439677 c -1.59546,0 -2.63855,0.73717 -3.12947,2.20989 l -44.91956,123.525793 c -0.36818,0.98183 -0.36818,1.77831 0,2.39193 0.49089,0.49092 1.22809,0.73754 2.2099,0.73754 h 28.90277 c 1.59546,0 2.63858,-0.73717 3.12947,-2.20992 l 44.91823,-123.525763 c 0.36818,-0.98183 0.30618,-1.71765 -0.18473,-2.20856 -0.36818,-0.61365 -1.04336,-0.92091 -2.02519,-0.92091 z m 86.522261,0 c -1.595459,0 -2.638581,0.73717 -3.129471,2.20989 l -44.91823,123.525793 c -0.36818,0.98183 -0.36818,1.77831 0,2.39193 0.49091,0.49092 1.22673,0.73754 2.20856,0.73754 h 28.90277 c 1.59546,0 2.638564,-0.73717 3.129474,-2.20992 L -49.904805,65.569147 c 0.36818,-0.98183 0.307543,-1.71765 -0.183426,-2.20856 -0.36818,-0.61365 -1.043356,-0.92091 -2.025189,-0.92091 z"
       style="font-size:70.5556px;font-family:Georgia;-inkscape-font-specification:Georgia;display:inline;fill:#fa4242;fill-opacity:1;stroke-width:11.5117;stroke-linecap:round;stroke-linejoin:round"
       id="path3" /></g></svg>
